<svg width="24" height="24" viewBox="0 0 24 24" fill="none" xmlns="http://www.w3.org/2000/svg">
<path fill-rule="evenodd" clip-rule="evenodd" d="M2 12C2 6.47065 6.47065 2 12 2C17.5294 2 22 6.47065 22 12C22 17.5294 17.5294 22 12 22C6.47065 22 2 17.5294 2 12ZM12 3.81818C7.4748 3.81818 3.81818 7.4748 3.81818 12C3.81818 16.5252 7.4748 20.1818 12 20.1818C16.5252 20.1818 20.1818 16.5252 20.1818 12C20.1818 7.4748 16.5252 3.81818 12 3.81818Z" fill="black"/>
<path fill-rule="evenodd" clip-rule="evenodd" d="M11.0936 11.0936L11.0936 6.47814L12.9064 6.47814L12.9064 11.0936L17.5219 11.0936V12.9064L12.9064 12.9064L12.9064 17.5219L11.0936 17.5219L11.0936 12.9064L6.47816 12.9064V11.0936L11.0936 11.0936Z" fill="black"/>
</svg>
